<?xml version="1.0" encoding="UTF-8"?><svg id="Layer_1" xmlns="http://www.w3.org/2000/svg" viewBox="0 0 128 128"><defs><style>.cls-1{fill:#e35205;stroke:#e35205;stroke-miterlimit:10;stroke-width:.5px;}</style></defs><path class="cls-1" d="M9.05,80.7H118.83v-4.48c0-1.09-.21-2.09-.59-3-.4-.96-1-1.82-1.74-2.55-.45-.45-.96-.86-1.51-1.23-.56-.37-1.15-.7-1.78-.98-1.68-.36-3.35-.71-5.01-1.04-1.67-.33-3.35-.63-5.04-.92-.08,0-.13-.02-.21-.04-.85-.14-1.67-.28-2.45-.4-.78-.12-1.6-.25-2.47-.38h-.02c-5.88-.75-11.74-1.33-17.58-1.71-5.86-.38-11.69-.58-17.48-.59-3.44,0-6.87,.06-10.3,.19-3.41,.13-6.84,.33-10.27,.6h-.02c-3.21,.3-6.41,.67-9.61,1.1-3.2,.43-6.41,.94-9.63,1.51l-.36,.09c-.07,.02-.13,.03-.19,.03-.06,0-.12,0-.17,0-1.51,.27-3.05,.57-4.65,.88-1.55,.31-3.09,.63-4.63,.97-.38,.21-.75,.45-1.09,.7-.35,.26-.68,.54-.98,.84h0c-.64,.64-1.15,1.38-1.5,2.21-.33,.78-.51,1.64-.51,2.58v5.62h0ZM18.64,16.01H107.94c1.16,0,2.28,.23,3.29,.65,1.06,.44,2.01,1.09,2.8,1.87,.8,.8,1.44,1.75,1.87,2.8,.42,1.02,.65,2.13,.65,3.29v41c.49,.29,.97,.61,1.41,.95,.5,.38,.97,.79,1.4,1.22,1.11,1.11,2.02,2.41,2.62,3.87,.58,1.37,.89,2.9,.89,4.55v5.85c.03,.1,.06,.19,.08,.29v.02c.02,.12,.03,.24,.03,.36,0,.12,0,.25-.04,.37h0c-.02,.1-.05,.19-.08,.29v26.56c0,.56-.23,1.07-.6,1.43-.36,.36-.87,.6-1.43,.6h-4.18c-.47,0-.9-.16-1.25-.43s-.61-.65-.71-1.09c-.77-2.21-1.55-3.96-2.38-5.32-.83-1.34-1.71-2.3-2.73-2.99-1.03-.68-2.26-1.11-3.75-1.37-1.52-.27-3.28-.36-5.39-.35l-76.6,.1h-.04c-1.51-.03-2.75,.16-3.78,.57-1.03,.4-1.86,1.01-2.55,1.79-.78,.86-1.43,1.97-2.03,3.26-.61,1.32-1.15,2.81-1.7,4.46h0c-.13,.42-.4,.76-.74,1-.32,.23-.7,.36-1.09,.38-.03,0-.06,0-.09,0H7.03c-.56,0-1.07-.23-1.43-.6-.36-.36-.6-.87-.6-1.43v-34.87c0-1.51,.29-2.89,.81-4.14,.56-1.33,1.37-2.51,2.39-3.52,.29-.29,.61-.58,.94-.85,.29-.23,.58-.45,.88-.65V24.55c0-1.16,.23-2.27,.65-3.27,.44-1.05,1.09-1.99,1.88-2.78,.8-.79,1.75-1.41,2.79-1.84,1.02-.42,2.12-.65,3.28-.65h0Zm89.3,4.05H18.64c-.62,0-1.22,.12-1.77,.35-.57,.23-1.07,.57-1.49,.98-.41,.4-.75,.9-.98,1.44-.21,.53-.33,1.1-.33,1.72V63.98c.29-.1,.58-.17,.87-.25,.47-.12,.94-.23,1.41-.31,.65-.12,1.36-.24,2.13-.37,.58-.1,1.19-.2,1.82-.3v-10.06c0-1.52,.31-2.97,.85-4.29,.58-1.38,1.41-2.62,2.45-3.66s2.28-1.87,3.66-2.45c1.33-.55,2.78-.85,4.29-.85h19.03c1.52,0,2.97,.31,4.29,.85,1.38,.58,2.62,1.41,3.66,2.45s1.87,2.28,2.45,3.66c.55,1.33,.85,2.78,.85,4.29v6.42c.67,0,1.34,0,2.03,0v-6.42c0-1.52,.31-2.97,.85-4.29,.58-1.38,1.41-2.62,2.45-3.66s2.28-1.87,3.66-2.45c1.33-.55,2.78-.85,4.29-.85h19.03c1.52,0,2.97,.31,4.29,.85,1.38,.58,2.62,1.41,3.66,2.45,1.04,1.04,1.87,2.28,2.45,3.66,.55,1.33,.85,2.78,.85,4.29v9.93c.72,.11,1.49,.23,2.31,.36,.91,.14,1.79,.29,2.63,.43,.43,.08,.87,.16,1.32,.27,.28,.07,.55,.13,.81,.21V24.63c0-.61-.12-1.2-.35-1.74-.23-.56-.58-1.06-1-1.49-.42-.42-.93-.77-1.48-1-.54-.22-1.12-.35-1.74-.35h0ZM46.5,59.76c1.93-.14,3.87-.27,5.84-.36,1.82-.1,3.65-.16,5.48-.21v-6.5c0-.97-.19-1.9-.55-2.75-.36-.88-.9-1.67-1.57-2.34-.66-.66-1.46-1.2-2.34-1.57-.85-.36-1.78-.55-2.75-.55H31.57c-.97,0-1.9,.19-2.75,.55-.88,.36-1.67,.9-2.34,1.57-.66,.66-1.2,1.46-1.57,2.34-.36,.85-.55,1.78-.55,2.75v9.42c1.56-.23,3.13-.44,4.74-.65,1.74-.22,3.47-.42,5.18-.61,.66-.08,1.37-.16,2.11-.24,.69-.08,1.41-.14,2.18-.22,1.31-.12,2.6-.24,3.88-.35,1.32-.09,2.66-.18,4.04-.27h0Zm21.44-.63c1.16,.02,2.32,.05,3.49,.09,1.29,.04,2.57,.1,3.85,.15h0c2.1,.08,4.16,.17,6.16,.29s3.95,.26,5.81,.42c2.71,.24,5.33,.53,7.82,.86,2.23,.31,4.34,.65,6.32,1.04v-9.3c0-.97-.19-1.9-.55-2.75-.36-.88-.9-1.67-1.57-2.34-.66-.66-1.46-1.2-2.34-1.57-.85-.36-1.78-.55-2.75-.55h-19.02c-.97,0-1.9,.19-2.75,.55-.88,.36-1.67,.9-2.34,1.57-.66,.66-1.2,1.46-1.57,2.34-.36,.85-.55,1.78-.55,2.75v6.44h0Zm50.9,25.63H9.05v23.17h1.37c.54-1.52,1.09-2.93,1.72-4.19,.67-1.34,1.43-2.54,2.35-3.56,1.09-1.23,2.38-2.18,3.93-2.81,1.55-.62,3.35-.94,5.52-.89l76.53-.1c2.47,0,4.58,.12,6.42,.47,1.87,.36,3.49,.96,4.94,1.92,1.34,.89,2.5,2.07,3.53,3.62,.99,1.48,1.87,3.29,2.72,5.53h.73v-23.16h.02Z"/></svg>