<?xml version="1.0" encoding="UTF-8"?><svg id="Layer_1" xmlns="http://www.w3.org/2000/svg" viewBox="0 0 128 128"><defs><style>.cls-1{fill:#e35205;}</style></defs><path class="cls-1" d="M106.52,21.65l-.09-.05h0c-10.87-10.88-25.87-17.6-42.43-17.6s-31.48,6.7-42.35,17.52l-.04,.08C10.74,32.44,4.01,47.45,4.01,64.01s6.69,31.5,17.52,42.33l.09,.09c10.87,10.85,25.82,17.58,42.39,17.58s31.52-6.7,42.34-17.52l.09-.08c10.87-10.85,17.56-25.85,17.56-42.4s-6.7-31.5-17.48-42.36h0Zm-6.04,78.81h0c-9.35,9.31-22.21,15.1-36.47,15.1s-27.13-5.78-36.43-15.1c-9.35-9.33-15.08-22.23-15.08-36.45s5.74-27.14,15.08-36.46c9.3-9.32,22.22-15.1,36.43-15.1s27.13,5.78,36.47,15.1c9.35,9.32,15.09,22.21,15.09,36.46s-5.74,27.13-15.09,36.45h0Zm-5.52-67.4h0c-7.91-7.9-18.87-12.8-30.95-12.8s-23,4.9-30.91,12.8c-7.91,7.91-12.83,18.86-12.83,30.94s4.91,23.02,12.83,30.93c7.91,7.91,18.87,12.81,30.91,12.81s23.04-4.9,30.95-12.81c7.91-7.91,12.78-18.86,12.78-30.93s-4.87-23.03-12.78-30.94h0Zm-3.61,58.29h0c-6.96,7-16.65,11.31-27.35,11.31s-20.35-4.32-27.35-11.31c-7-7-11.31-16.68-11.31-27.35s4.3-20.37,11.31-27.35c7-7,16.69-11.34,27.35-11.34s20.39,4.34,27.35,11.34c7,6.98,11.35,16.66,11.35,27.35s-4.35,20.34-11.35,27.35h0Zm-21.04-43.42h0c.74,0,1.39,.3,1.87,.77,.48,.48,.78,1.15,.78,1.85,0,1.4,1.13,2.54,2.52,2.54s2.52-1.14,2.52-2.54c0-2.09-.87-4.02-2.26-5.41-1.39-1.4-3.35-2.27-5.43-2.27h-3.78v-2.21c0-1.4-1.09-2.53-2.52-2.53s-2.52,1.13-2.52,2.53v2.21h-3.78c-2.09,0-4,.87-5.39,2.27-1.44,1.39-2.3,3.33-2.3,5.41v8.29c0,2.1,.91,4.03,2.26,5.42,1.35,1.34,3.22,2.19,5.17,2.26h.26s3.78,0,3.78,0v13.53h-3.78c-.7,0-1.35-.3-1.83-.77-.48-.49-.78-1.14-.78-1.85,0-1.41-1.13-2.54-2.52-2.54s-2.56,1.13-2.56,2.54c0,2.09,.91,4.02,2.3,5.42,1.39,1.38,3.3,2.26,5.39,2.26h3.78v2.19c0,1.4,1.13,2.54,2.52,2.54s2.52-1.14,2.52-2.54v-2.19h3.83c2.09,0,4-.86,5.39-2.26,1.39-1.4,2.26-3.34,2.26-5.42v-8.29c0-2.1-.87-4.03-2.26-5.41-1.35-1.34-3.17-2.21-5.17-2.27h-.26s-3.78-.01-3.78-.01v-13.53h3.78Zm-8.83,13.53h-3.78c-.7,0-1.35-.3-1.83-.77-.48-.49-.78-1.15-.78-1.85v-8.29c0-.7,.3-1.37,.78-1.85,.48-.47,1.13-.77,1.83-.77h3.78v13.53h0Zm8.83,5.08h0c.74,0,1.39,.3,1.87,.78,.48,.49,.78,1.14,.78,1.84v8.29c0,.71-.3,1.36-.78,1.85-.48,.47-1.13,.77-1.83,.77h-3.83v-13.53h3.78Z"/></svg>