<?xml version="1.0" encoding="UTF-8"?><svg id="Layer_1" xmlns="http://www.w3.org/2000/svg" viewBox="0 0 128 128"><defs><style>.cls-1{fill:#e35205;}</style></defs><path class="cls-1" d="M64.36,60.73c-9.96,0-18.08-9.02-18.08-20.11s8.12-20.1,18.08-20.1,18.07,9.02,18.07,20.1-8.11,20.11-18.07,20.11h0Zm0-30.66c-4.7,0-8.53,4.73-8.53,10.55s3.82,10.56,8.53,10.56,8.52-4.73,8.52-10.56-3.82-10.55-8.52-10.55h0Z"/><path class="cls-1" d="M89.64,107.48H38.44c-2.51,0-4.59-1.94-4.77-4.45-.39-5.54-.76-11.09-1.13-16.54-.46-6.69,4.54-14.13,11.14-16.57,13.15-4.73,27.6-4.7,40.67-.01,6.65,2.44,11.65,9.88,11.19,16.61l-1.13,16.52c-.18,2.5-2.26,4.45-4.77,4.45h0Zm-46.75-9.55h42.29l.82-12.07c.14-2.04-1.86-5.85-4.91-6.97-10.92-3.91-23.14-3.93-34.15,0-3,1.11-5.01,4.94-4.87,6.96,.26,3.99,.54,8.03,.81,12.07h0Z"/><path class="cls-1" d="M89.64,107.48H38.44c-2.51,0-4.59-1.94-4.77-4.45-.39-5.54-.76-11.09-1.13-16.54-.46-6.69,4.54-14.13,11.14-16.57,13.15-4.73,27.6-4.7,40.67-.01,6.65,2.44,11.65,9.88,11.19,16.61l-1.13,16.52c-.18,2.5-2.26,4.45-4.77,4.45h0Zm-46.75-9.55h42.29l.82-12.07c.14-2.04-1.86-5.85-4.91-6.97-10.92-3.91-23.14-3.93-34.15,0-3,1.11-5.01,4.94-4.87,6.96,.26,3.99,.54,8.03,.81,12.07h0Z"/><path class="cls-1" d="M120.61,99.72h-20.38c-1.32,0-2.39-1.07-2.39-2.39s1.06-2.39,2.39-2.39h18.16l.83-12.03c.18-2.62-2.13-6.59-5.37-7.78-4.64-1.66-9.51-2.55-14.47-2.63-1.32-.02-2.37-1.11-2.35-2.43,.03-1.31,1.09-2.35,2.39-2.35h.05c5.49,.09,10.87,1.07,16.01,2.92,4.97,1.82,8.86,7.59,8.52,12.59l-.98,14.26c-.09,1.25-1.13,2.22-2.39,2.22h0Z"/><path class="cls-1" d="M104.93,62.54c-7.03,0-12.76-6.43-12.76-14.34s5.73-14.33,12.76-14.33,12.74,6.43,12.74,14.33-5.72,14.34-12.74,14.34h0Zm0-23.9c-4.4,0-7.99,4.29-7.99,9.56s3.58,9.56,7.99,9.56,7.97-4.29,7.97-9.56-3.57-9.56-7.97-9.56h0Z"/><path class="cls-1" d="M27.77,99.72H7.38c-1.25,0-2.29-.97-2.38-2.22l-.98-14.27c-.35-5,3.55-10.76,8.5-12.58,5.16-1.85,10.54-2.83,16.03-2.92,1.38,.18,2.41,1.03,2.43,2.35,.02,1.32-1.03,2.41-2.35,2.43-4.96,.08-9.83,.97-14.48,2.64-3.24,1.18-5.54,5.15-5.36,7.77l.82,12.04H27.77c1.32,0,2.39,1.07,2.39,2.39s-1.06,2.39-2.39,2.39h0Z"/><path class="cls-1" d="M23.07,62.54c-7.03,0-12.74-6.43-12.74-14.34s5.72-14.33,12.74-14.33,12.76,6.43,12.76,14.33-5.73,14.34-12.76,14.34h0Zm0-23.9c-4.39,0-7.97,4.29-7.97,9.56s3.57,9.56,7.97,9.56,7.99-4.29,7.99-9.56-3.58-9.56-7.99-9.56h0Z"/></svg>